<svg width="32" height="32" viewBox="0 0 32 32" fill="none" xmlns="http://www.w3.org/2000/svg">
<path d="M16.0001 21.3332C18.9414 21.3332 21.3334 18.9412 21.3334 15.9998C21.3334 13.0585 18.9414 10.6665 16.0001 10.6665C13.0587 10.6665 10.6667 13.0585 10.6667 15.9998C10.6667 18.9412 13.0587 21.3332 16.0001 21.3332ZM16.0001 13.3332C17.4454 13.3332 18.6667 14.5545 18.6667 15.9998C18.6667 17.4452 17.4454 18.6665 16.0001 18.6665C14.5547 18.6665 13.3334 17.4452 13.3334 15.9998C13.3334 14.5545 14.5547 13.3332 16.0001 13.3332Z" fill="#194299"/>
<path d="M16.0001 21.3332C18.9414 21.3332 21.3334 18.9412 21.3334 15.9998C21.3334 13.0585 18.9414 10.6665 16.0001 10.6665C13.0587 10.6665 10.6667 13.0585 10.6667 15.9998C10.6667 18.9412 13.0587 21.3332 16.0001 21.3332ZM16.0001 13.3332C17.4454 13.3332 18.6667 14.5545 18.6667 15.9998C18.6667 17.4452 17.4454 18.6665 16.0001 18.6665C14.5547 18.6665 13.3334 17.4452 13.3334 15.9998C13.3334 14.5545 14.5547 13.3332 16.0001 13.3332Z" fill="url(#paint0_linear)"/>
<path d="M3.79347 21.5145L5.12681 23.8212C5.83481 25.0438 7.5388 25.5025 8.7668 24.7945L9.47214 24.3865C10.2481 24.9958 11.1001 25.4958 12.0001 25.8692V26.6665C12.0001 28.1372 13.1961 29.3332 14.6668 29.3332H17.3335C18.8041 29.3332 20.0001 28.1372 20.0001 26.6665V25.8692C20.9001 25.4958 21.7521 24.9958 22.5281 24.3878L23.2335 24.7958C24.4641 25.5025 26.1641 25.0465 26.8748 23.8212L28.2068 21.5158C28.9428 20.2425 28.5055 18.6078 27.2321 17.8732L26.5588 17.4838C26.6308 16.9892 26.6668 16.4945 26.6668 15.9998C26.6668 15.5052 26.6308 15.0092 26.5588 14.5185L27.2321 14.1292C28.5055 13.3932 28.9428 11.7598 28.2068 10.4865L26.8748 8.18117C26.1668 6.9545 24.4641 6.4945 23.2335 7.20517L22.5281 7.61317C21.7521 7.00384 20.9001 6.50384 20.0001 6.1305V5.33317C20.0001 3.8625 18.8041 2.6665 17.3335 2.6665H14.6668C13.1961 2.6665 12.0001 3.8625 12.0001 5.33317V6.1305C11.1001 6.50384 10.2481 7.00384 9.47214 7.61184L8.7668 7.20384C7.5348 6.49584 5.83347 6.9545 5.12547 8.17984L3.79347 10.4852C3.05747 11.7585 3.49481 13.3932 4.76814 14.1278L5.44147 14.5172C5.36947 15.0092 5.33347 15.5052 5.33347 15.9998C5.33347 16.4945 5.36947 16.9892 5.44147 17.4812L4.76814 17.8705C3.49481 18.6065 3.05747 20.2412 3.79347 21.5145ZM8.22814 17.8372C8.07747 17.2332 8.00014 16.6145 8.00014 15.9998C8.00014 15.3838 8.07747 14.7652 8.22681 14.1625C8.37081 13.5852 8.11614 12.9825 7.60014 12.6852L6.10281 11.8185L7.43347 9.51317L8.96014 10.3958C9.47214 10.6905 10.1161 10.6158 10.5441 10.2065C11.4548 9.34384 12.5535 8.6985 13.7228 8.34117C14.2841 8.1705 14.6668 7.65184 14.6668 7.0665V5.33317H17.3335V7.0665C17.3335 7.65184 17.7161 8.1705 18.2775 8.34117C19.4468 8.69984 20.5455 9.34384 21.4561 10.2065C21.8841 10.6158 22.5308 10.6892 23.0401 10.3958L24.5655 9.5145L25.8988 11.8198L24.4001 12.6852C23.8841 12.9838 23.6295 13.5865 23.7735 14.1625C23.9228 14.7652 24.0001 15.3838 24.0001 15.9998C24.0001 16.6145 23.9228 17.2332 23.7721 17.8372C23.6295 18.4145 23.8841 19.0172 24.4001 19.3145L25.8975 20.1798L24.5668 22.4852L23.0401 21.6038C22.5295 21.3092 21.8841 21.3825 21.4561 21.7932C20.5455 22.6558 19.4468 23.3012 18.2775 23.6585C17.7161 23.8292 17.3335 24.3478 17.3335 24.9332L17.3361 26.6665H14.6668V24.9332C14.6668 24.3478 14.2841 23.8292 13.7228 23.6585C12.5535 23.2998 11.4548 22.6558 10.5441 21.7932C10.2908 21.5505 9.96014 21.4265 9.6268 21.4265C9.39747 21.4265 9.16814 21.4852 8.96014 21.6052L7.43481 22.4878L6.10147 20.1825L7.60014 19.3145C8.11614 19.0172 8.3708 18.4145 8.22814 17.8372Z" fill="#194299"/>
<path d="M3.79347 21.5145L5.12681 23.8212C5.83481 25.0438 7.5388 25.5025 8.7668 24.7945L9.47214 24.3865C10.2481 24.9958 11.1001 25.4958 12.0001 25.8692V26.6665C12.0001 28.1372 13.1961 29.3332 14.6668 29.3332H17.3335C18.8041 29.3332 20.0001 28.1372 20.0001 26.6665V25.8692C20.9001 25.4958 21.7521 24.9958 22.5281 24.3878L23.2335 24.7958C24.4641 25.5025 26.1641 25.0465 26.8748 23.8212L28.2068 21.5158C28.9428 20.2425 28.5055 18.6078 27.2321 17.8732L26.5588 17.4838C26.6308 16.9892 26.6668 16.4945 26.6668 15.9998C26.6668 15.5052 26.6308 15.0092 26.5588 14.5185L27.2321 14.1292C28.5055 13.3932 28.9428 11.7598 28.2068 10.4865L26.8748 8.18117C26.1668 6.9545 24.4641 6.4945 23.2335 7.20517L22.5281 7.61317C21.7521 7.00384 20.9001 6.50384 20.0001 6.1305V5.33317C20.0001 3.8625 18.8041 2.6665 17.3335 2.6665H14.6668C13.1961 2.6665 12.0001 3.8625 12.0001 5.33317V6.1305C11.1001 6.50384 10.2481 7.00384 9.47214 7.61184L8.7668 7.20384C7.5348 6.49584 5.83347 6.9545 5.12547 8.17984L3.79347 10.4852C3.05747 11.7585 3.49481 13.3932 4.76814 14.1278L5.44147 14.5172C5.36947 15.0092 5.33347 15.5052 5.33347 15.9998C5.33347 16.4945 5.36947 16.9892 5.44147 17.4812L4.76814 17.8705C3.49481 18.6065 3.05747 20.2412 3.79347 21.5145ZM8.22814 17.8372C8.07747 17.2332 8.00014 16.6145 8.00014 15.9998C8.00014 15.3838 8.07747 14.7652 8.22681 14.1625C8.37081 13.5852 8.11614 12.9825 7.60014 12.6852L6.10281 11.8185L7.43347 9.51317L8.96014 10.3958C9.47214 10.6905 10.1161 10.6158 10.5441 10.2065C11.4548 9.34384 12.5535 8.6985 13.7228 8.34117C14.2841 8.1705 14.6668 7.65184 14.6668 7.0665V5.33317H17.3335V7.0665C17.3335 7.65184 17.7161 8.1705 18.2775 8.34117C19.4468 8.69984 20.5455 9.34384 21.4561 10.2065C21.8841 10.6158 22.5308 10.6892 23.0401 10.3958L24.5655 9.5145L25.8988 11.8198L24.4001 12.6852C23.8841 12.9838 23.6295 13.5865 23.7735 14.1625C23.9228 14.7652 24.0001 15.3838 24.0001 15.9998C24.0001 16.6145 23.9228 17.2332 23.7721 17.8372C23.6295 18.4145 23.8841 19.0172 24.4001 19.3145L25.8975 20.1798L24.5668 22.4852L23.0401 21.6038C22.5295 21.3092 21.8841 21.3825 21.4561 21.7932C20.5455 22.6558 19.4468 23.3012 18.2775 23.6585C17.7161 23.8292 17.3335 24.3478 17.3335 24.9332L17.3361 26.6665H14.6668V24.9332C14.6668 24.3478 14.2841 23.8292 13.7228 23.6585C12.5535 23.2998 11.4548 22.6558 10.5441 21.7932C10.2908 21.5505 9.96014 21.4265 9.6268 21.4265C9.39747 21.4265 9.16814 21.4852 8.96014 21.6052L7.43481 22.4878L6.10147 20.1825L7.60014 19.3145C8.11614 19.0172 8.3708 18.4145 8.22814 17.8372Z" fill="url(#paint1_linear)"/>
<defs>
<linearGradient id="paint0_linear" x1="10.6667" y1="5.52925" x2="22.5668" y2="16.2888" gradientUnits="userSpaceOnUse">
<stop stop-color="#487FF4"/>
<stop offset="1" stop-color="#487FF4" stop-opacity="0"/>
</linearGradient>
<linearGradient id="paint1_linear" x1="3.43603" y1="-10.1766" x2="32.9578" y2="14.9757" gradientUnits="userSpaceOnUse">
<stop stop-color="#487FF4"/>
<stop offset="1" stop-color="#487FF4" stop-opacity="0"/>
</linearGradient>
</defs>
</svg>
