<svg width="32" height="32" viewBox="0 0 32 32" fill="none" xmlns="http://www.w3.org/2000/svg">
<path d="M23.6093 16.3907C23.0879 15.8694 22.2453 15.8694 21.7239 16.3907L19.5986 18.516C18.6133 18.2227 16.7746 17.556 15.6093 16.3907C14.4439 15.2254 13.7773 13.3867 13.4839 12.4014L15.6093 10.276C16.1306 9.75471 16.1306 8.91205 15.6093 8.39072L10.2759 3.05738C9.7546 2.53605 8.91194 2.53605 8.3906 3.05738L4.7746 6.67338C4.26794 7.18005 3.9826 7.87605 3.99327 8.58672C4.02394 10.4854 4.5266 17.08 9.72394 22.2774C14.9213 27.4747 21.5159 27.976 23.4159 28.008C23.4226 28.008 23.4466 28.008 23.4533 28.008C24.1573 28.008 24.8226 27.7307 25.3266 27.2267L28.9426 23.6107C29.4639 23.0894 29.4639 22.2467 28.9426 21.7254L23.6093 16.3907ZM23.4399 25.34C21.7759 25.312 16.0826 24.8654 11.6093 20.3907C7.12127 15.9027 6.6866 10.1894 6.65994 8.55872L9.33327 5.88538L12.7813 9.33338L11.0573 11.0574C10.7386 11.3747 10.6026 11.8334 10.6946 12.2734C10.7266 12.4267 11.5093 16.0627 13.7226 18.276C15.9359 20.4894 19.5719 21.272 19.7253 21.304C20.1693 21.3987 20.6239 21.2614 20.9413 20.9427L22.6666 19.2187L26.1146 22.6667L23.4399 25.34Z" fill="#194299"/>
<path d="M23.6093 16.3907C23.0879 15.8694 22.2453 15.8694 21.7239 16.3907L19.5986 18.516C18.6133 18.2227 16.7746 17.556 15.6093 16.3907C14.4439 15.2254 13.7773 13.3867 13.4839 12.4014L15.6093 10.276C16.1306 9.75471 16.1306 8.91205 15.6093 8.39072L10.2759 3.05738C9.7546 2.53605 8.91194 2.53605 8.3906 3.05738L4.7746 6.67338C4.26794 7.18005 3.9826 7.87605 3.99327 8.58672C4.02394 10.4854 4.5266 17.08 9.72394 22.2774C14.9213 27.4747 21.5159 27.976 23.4159 28.008C23.4226 28.008 23.4466 28.008 23.4533 28.008C24.1573 28.008 24.8226 27.7307 25.3266 27.2267L28.9426 23.6107C29.4639 23.0894 29.4639 22.2467 28.9426 21.7254L23.6093 16.3907ZM23.4399 25.34C21.7759 25.312 16.0826 24.8654 11.6093 20.3907C7.12127 15.9027 6.6866 10.1894 6.65994 8.55872L9.33327 5.88538L12.7813 9.33338L11.0573 11.0574C10.7386 11.3747 10.6026 11.8334 10.6946 12.2734C10.7266 12.4267 11.5093 16.0627 13.7226 18.276C15.9359 20.4894 19.5719 21.272 19.7253 21.304C20.1693 21.3987 20.6239 21.2614 20.9413 20.9427L22.6666 19.2187L26.1146 22.6667L23.4399 25.34Z" fill="url(#paint0_linear)"/>
<defs>
<linearGradient id="paint0_linear" x1="3.99298" y1="-9.53861" x2="32.2648" y2="16.0225" gradientUnits="userSpaceOnUse">
<stop stop-color="#487FF4"/>
<stop offset="1" stop-color="#487FF4" stop-opacity="0"/>
</linearGradient>
</defs>
</svg>
