<svg width="52" height="52" viewBox="0 0 52 52" fill="none" xmlns="http://www.w3.org/2000/svg">
<path d="M11.0976 45.4987C11.9166 46.3177 13.0043 46.7684 14.1613 46.7684C15.3183 46.7684 16.4059 46.3177 17.2249 45.4987L26.6196 36.104C28.1709 36.5829 29.7808 36.8255 31.4231 36.8255C35.7629 36.8255 39.8449 35.1377 42.9108 32.0697C47.5604 27.4179 48.9493 20.4802 46.4468 14.394L45.2118 11.3867L36.0164 20.5799L31.4209 15.9822L40.6141 6.78903L37.6046 5.55186C35.6329 4.74153 33.5508 4.33203 31.4144 4.33203C27.0746 4.33203 22.9948 6.02203 19.9289 9.09003C15.6281 13.3887 14.1179 19.646 15.8946 25.379L6.49992 34.7737C4.80992 36.4615 4.80992 39.2132 6.49992 40.901L11.0976 45.4987ZM20.9516 26.4515L20.4013 25.1169C18.5639 20.6514 19.5823 15.5619 22.9926 12.1537C25.2416 9.9047 28.2316 8.66537 31.4144 8.66537C31.7979 8.66537 32.1771 8.6827 32.5541 8.71953L25.2893 15.9844L36.0121 26.7094L43.2813 19.4402C43.6193 22.9242 42.4081 26.4407 39.8428 29.0082C36.4844 32.3665 31.2541 33.4 26.8774 31.5995L25.5449 31.047L14.1613 42.435H14.1634L14.1613 44.6017V42.435L9.56359 37.8374L20.9516 26.4515Z" fill="#194299"/>
<path d="M11.0976 45.4987C11.9166 46.3177 13.0043 46.7684 14.1613 46.7684C15.3183 46.7684 16.4059 46.3177 17.2249 45.4987L26.6196 36.104C28.1709 36.5829 29.7808 36.8255 31.4231 36.8255C35.7629 36.8255 39.8449 35.1377 42.9108 32.0697C47.5604 27.4179 48.9493 20.4802 46.4468 14.394L45.2118 11.3867L36.0164 20.5799L31.4209 15.9822L40.6141 6.78903L37.6046 5.55186C35.6329 4.74153 33.5508 4.33203 31.4144 4.33203C27.0746 4.33203 22.9948 6.02203 19.9289 9.09003C15.6281 13.3887 14.1179 19.646 15.8946 25.379L6.49992 34.7737C4.80992 36.4615 4.80992 39.2132 6.49992 40.901L11.0976 45.4987ZM20.9516 26.4515L20.4013 25.1169C18.5639 20.6514 19.5823 15.5619 22.9926 12.1537C25.2416 9.9047 28.2316 8.66537 31.4144 8.66537C31.7979 8.66537 32.1771 8.6827 32.5541 8.71953L25.2893 15.9844L36.0121 26.7094L43.2813 19.4402C43.6193 22.9242 42.4081 26.4407 39.8428 29.0082C36.4844 32.3665 31.2541 33.4 26.8774 31.5995L25.5449 31.047L14.1613 42.435H14.1634L14.1613 44.6017V42.435L9.56359 37.8374L20.9516 26.4515Z" fill="url(#paint0_linear)"/>
<defs>
<linearGradient id="paint0_linear" x1="5.23242" y1="-16.1061" x2="52.5764" y2="26.7073" gradientUnits="userSpaceOnUse">
<stop stop-color="#487FF4"/>
<stop offset="1" stop-color="#487FF4" stop-opacity="0"/>
</linearGradient>
</defs>
</svg>
