<svg width="52" height="52" viewBox="0 0 52 52" fill="none" xmlns="http://www.w3.org/2000/svg">
<path d="M10.8333 47.6668H41.1667C43.5565 47.6668 45.5 45.7233 45.5 43.3335V19.5002C45.5 18.302 44.5315 17.3335 43.3333 17.3335H36.8333V15.1668C36.8333 9.19333 31.9735 4.3335 26 4.3335C20.0265 4.3335 15.1667 9.19333 15.1667 15.1668V17.3335H8.66667C7.4685 17.3335 6.5 18.302 6.5 19.5002V43.3335C6.5 45.7233 8.4435 47.6668 10.8333 47.6668ZM19.5 15.1668C19.5 11.5832 22.4163 8.66683 26 8.66683C29.5837 8.66683 32.5 11.5832 32.5 15.1668V17.3335H19.5V15.1668ZM10.8333 21.6668H15.1667V26.0002H19.5V21.6668H32.5V26.0002H36.8333V21.6668H41.1667L41.171 43.3335H10.8333V21.6668Z" fill="#194299"/>
<path d="M10.8333 47.6668H41.1667C43.5565 47.6668 45.5 45.7233 45.5 43.3335V19.5002C45.5 18.302 44.5315 17.3335 43.3333 17.3335H36.8333V15.1668C36.8333 9.19333 31.9735 4.3335 26 4.3335C20.0265 4.3335 15.1667 9.19333 15.1667 15.1668V17.3335H8.66667C7.4685 17.3335 6.5 18.302 6.5 19.5002V43.3335C6.5 45.7233 8.4435 47.6668 10.8333 47.6668ZM19.5 15.1668C19.5 11.5832 22.4163 8.66683 26 8.66683C29.5837 8.66683 32.5 11.5832 32.5 15.1668V17.3335H19.5V15.1668ZM10.8333 21.6668H15.1667V26.0002H19.5V21.6668H32.5V26.0002H36.8333V21.6668H41.1667L41.171 43.3335H10.8333V21.6668Z" fill="url(#paint0_linear)"/>
<defs>
<linearGradient id="paint0_linear" x1="6.5" y1="-16.5366" x2="54.0754" y2="22.1775" gradientUnits="userSpaceOnUse">
<stop stop-color="#487FF4"/>
<stop offset="1" stop-color="#487FF4" stop-opacity="0"/>
</linearGradient>
</defs>
</svg>
