<svg width="52" height="52" viewBox="0 0 52 52" fill="none" xmlns="http://www.w3.org/2000/svg">
<path d="M43.3335 13.0002H36.8335V8.66683C36.8335 6.277 34.89 4.3335 32.5002 4.3335H19.5002C17.1103 4.3335 15.1668 6.277 15.1668 8.66683V13.0002H8.66683C6.277 13.0002 4.3335 14.9437 4.3335 17.3335V39.0002C4.3335 41.39 6.277 43.3335 8.66683 43.3335H43.3335C45.7233 43.3335 47.6668 41.39 47.6668 39.0002V17.3335C47.6668 14.9437 45.7233 13.0002 43.3335 13.0002ZM19.5002 8.66683H32.5002V13.0002H19.5002V8.66683ZM8.66683 39.0002V17.3335H17.3335H34.6668H43.3335L43.3357 39.0002H8.66683Z" fill="#194299"/>
<path d="M43.3335 13.0002H36.8335V8.66683C36.8335 6.277 34.89 4.3335 32.5002 4.3335H19.5002C17.1103 4.3335 15.1668 6.277 15.1668 8.66683V13.0002H8.66683C6.277 13.0002 4.3335 14.9437 4.3335 17.3335V39.0002C4.3335 41.39 6.277 43.3335 8.66683 43.3335H43.3335C45.7233 43.3335 47.6668 41.39 47.6668 39.0002V17.3335C47.6668 14.9437 45.7233 13.0002 43.3335 13.0002ZM19.5002 8.66683H32.5002V13.0002H19.5002V8.66683ZM8.66683 39.0002V17.3335H17.3335H34.6668H43.3335L43.3357 39.0002H8.66683Z" fill="url(#paint0_linear)"/>
<path d="M28.1668 19.5H23.8335V26H17.3335V30.3333H23.8335V36.8333H28.1668V30.3333H34.6668V26H28.1668V19.5Z" fill="#194299"/>
<path d="M28.1668 19.5H23.8335V26H17.3335V30.3333H23.8335V36.8333H28.1668V30.3333H34.6668V26H28.1668V19.5Z" fill="url(#paint1_linear)"/>
<defs>
<linearGradient id="paint0_linear" x1="4.33349" y1="-14.4496" x2="48.0636" y2="29.4826" gradientUnits="userSpaceOnUse">
<stop stop-color="#487FF4"/>
<stop offset="1" stop-color="#487FF4" stop-opacity="0"/>
</linearGradient>
<linearGradient id="paint1_linear" x1="17.3335" y1="11.152" x2="36.6711" y2="28.6362" gradientUnits="userSpaceOnUse">
<stop stop-color="#487FF4"/>
<stop offset="1" stop-color="#487FF4" stop-opacity="0"/>
</linearGradient>
</defs>
</svg>
