<svg width="52" height="52" viewBox="0 0 52 52" fill="none" xmlns="http://www.w3.org/2000/svg">
<path d="M39.0002 4.3335H15.1668C12.777 4.3335 10.8335 6.277 10.8335 8.66683V15.1668C10.8335 17.5567 12.777 19.5002 15.1668 19.5002H39.0002C41.39 19.5002 43.3335 17.5567 43.3335 15.1668V8.66683C43.3335 6.277 41.39 4.3335 39.0002 4.3335ZM15.1668 15.1668V8.66683H39.0002L39.0045 15.1668H15.1668Z" fill="#194299"/>
<path d="M39.0002 4.3335H15.1668C12.777 4.3335 10.8335 6.277 10.8335 8.66683V15.1668C10.8335 17.5567 12.777 19.5002 15.1668 19.5002H39.0002C41.39 19.5002 43.3335 17.5567 43.3335 15.1668V8.66683C43.3335 6.277 41.39 4.3335 39.0002 4.3335ZM15.1668 15.1668V8.66683H39.0002L39.0045 15.1668H15.1668Z" fill="url(#paint0_linear)"/>
<path d="M28.1668 32.5002V28.1668C28.1668 25.777 26.2233 23.8335 23.8335 23.8335H8.66683V10.8335C6.277 10.8335 4.3335 12.777 4.3335 15.1668V23.8335C4.3335 26.2233 6.277 28.1668 8.66683 28.1668H23.8335V32.5002C22.6353 32.5002 21.6668 33.4687 21.6668 34.6668V45.5002C21.6668 46.6983 22.6353 47.6668 23.8335 47.6668H28.1668C29.365 47.6668 30.3335 46.6983 30.3335 45.5002V34.6668C30.3335 33.4687 29.365 32.5002 28.1668 32.5002Z" fill="#194299"/>
<path d="M28.1668 32.5002V28.1668C28.1668 25.777 26.2233 23.8335 23.8335 23.8335H8.66683V10.8335C6.277 10.8335 4.3335 12.777 4.3335 15.1668V23.8335C4.3335 26.2233 6.277 28.1668 8.66683 28.1668H23.8335V32.5002C22.6353 32.5002 21.6668 33.4687 21.6668 34.6668V45.5002C21.6668 46.6983 22.6353 47.6668 23.8335 47.6668H28.1668C29.365 47.6668 30.3335 46.6983 30.3335 45.5002V34.6668C30.3335 33.4687 29.365 32.5002 28.1668 32.5002Z" fill="url(#paint1_linear)"/>
<defs>
<linearGradient id="paint0_linear" x1="10.8335" y1="-2.97104" x2="24.6957" y2="23.8868" gradientUnits="userSpaceOnUse">
<stop stop-color="#487FF4"/>
<stop offset="1" stop-color="#487FF4" stop-opacity="0"/>
</linearGradient>
<linearGradient id="paint1_linear" x1="4.3335" y1="-6.90609" x2="41.7937" y2="17.0021" gradientUnits="userSpaceOnUse">
<stop stop-color="#487FF4"/>
<stop offset="1" stop-color="#487FF4" stop-opacity="0"/>
</linearGradient>
</defs>
</svg>
