<svg width="52" height="52" viewBox="0 0 52 52" fill="none" xmlns="http://www.w3.org/2000/svg">
<path d="M47.2809 16.1005C46.8758 15.5155 46.2106 15.1667 45.4999 15.1667H15.8881L13.3878 9.165C12.7118 7.54433 11.1431 6.5 9.38809 6.5H4.33325V10.8333H9.38809L19.6668 35.5008C20.0026 36.3068 20.7913 36.8333 21.6666 36.8333H38.9999C39.9034 36.8333 40.7116 36.2722 41.0301 35.4293L47.5301 18.096C47.7793 17.4287 47.6861 16.6833 47.2809 16.1005ZM37.4984 32.5H23.1118L17.6951 19.5H42.3734L37.4984 32.5Z" fill="#194299"/>
<path d="M47.2809 16.1005C46.8758 15.5155 46.2106 15.1667 45.4999 15.1667H15.8881L13.3878 9.165C12.7118 7.54433 11.1431 6.5 9.38809 6.5H4.33325V10.8333H9.38809L19.6668 35.5008C20.0026 36.3068 20.7913 36.8333 21.6666 36.8333H38.9999C39.9034 36.8333 40.7116 36.2722 41.0301 35.4293L47.5301 18.096C47.7793 17.4287 47.6861 16.6833 47.2809 16.1005ZM37.4984 32.5H23.1118L17.6951 19.5H42.3734L37.4984 32.5Z" fill="url(#paint0_linear)"/>
<path d="M22.75 45.5C24.5449 45.5 26 44.0449 26 42.25C26 40.4551 24.5449 39 22.75 39C20.9551 39 19.5 40.4551 19.5 42.25C19.5 44.0449 20.9551 45.5 22.75 45.5Z" fill="#194299"/>
<path d="M22.75 45.5C24.5449 45.5 26 44.0449 26 42.25C26 40.4551 24.5449 39 22.75 39C20.9551 39 19.5 40.4551 19.5 42.25C19.5 44.0449 20.9551 45.5 22.75 45.5Z" fill="url(#paint1_linear)"/>
<path d="M37.9167 45.5C39.7117 45.5 41.1667 44.0449 41.1667 42.25C41.1667 40.4551 39.7117 39 37.9167 39C36.1218 39 34.6667 40.4551 34.6667 42.25C34.6667 44.0449 36.1218 45.5 37.9167 45.5Z" fill="#194299"/>
<path d="M37.9167 45.5C39.7117 45.5 41.1667 44.0449 41.1667 42.25C41.1667 40.4551 39.7117 39 37.9167 39C36.1218 39 34.6667 40.4551 34.6667 42.25C34.6667 44.0449 36.1218 45.5 37.9167 45.5Z" fill="url(#paint2_linear)"/>
<defs>
<linearGradient id="paint0_linear" x1="4.33325" y1="-8.10907" x2="37.2614" y2="34.4238" gradientUnits="userSpaceOnUse">
<stop stop-color="#487FF4"/>
<stop offset="1" stop-color="#487FF4" stop-opacity="0"/>
</linearGradient>
<linearGradient id="paint1_linear" x1="19.5" y1="35.8695" x2="26.7516" y2="42.4261" gradientUnits="userSpaceOnUse">
<stop stop-color="#487FF4"/>
<stop offset="1" stop-color="#487FF4" stop-opacity="0"/>
</linearGradient>
<linearGradient id="paint2_linear" x1="34.6667" y1="35.8695" x2="41.9183" y2="42.4261" gradientUnits="userSpaceOnUse">
<stop stop-color="#487FF4"/>
<stop offset="1" stop-color="#487FF4" stop-opacity="0"/>
</linearGradient>
</defs>
</svg>
