<svg width="24" height="24" viewBox="0 0 24 24" fill="none" xmlns="http://www.w3.org/2000/svg">
<path d="M20 4H4C2.896 4 2 4.896 2 6V18C2 19.104 2.896 20 4 20H20C21.104 20 22 19.104 22 18V6C22 4.896 21.104 4 20 4ZM20 8.7L12 14.034L4 8.7V6.297L12 11.63L20 6.297V8.7Z" fill="#194299"/>
<path d="M20 4H4C2.896 4 2 4.896 2 6V18C2 19.104 2.896 20 4 20H20C21.104 20 22 19.104 22 18V6C22 4.896 21.104 4 20 4ZM20 8.7L12 14.034L4 8.7V6.297L12 11.63L20 6.297V8.7Z" fill="url(#paint0_linear)"/>
<defs>
<linearGradient id="paint0_linear" x1="2" y1="-3.70588" x2="19.8072" y2="16.4198" gradientUnits="userSpaceOnUse">
<stop stop-color="#487FF4"/>
<stop offset="1" stop-color="#487FF4" stop-opacity="0"/>
</linearGradient>
</defs>
</svg>
