<svg width="20" height="24" viewBox="0 0 20 24" fill="none" xmlns="http://www.w3.org/2000/svg">
<path d="M10.0001 0.333496C4.85389 0.333496 0.666721 4.52066 0.666721 9.661C0.632888 17.1802 9.64539 23.4148 10.0001 23.6668C10.0001 23.6668 19.3672 17.1802 19.3334 9.66683C19.3334 4.52066 15.1462 0.333496 10.0001 0.333496ZM10.0001 14.3335C7.42172 14.3335 5.33339 12.2452 5.33339 9.66683C5.33339 7.0885 7.42172 5.00016 10.0001 5.00016C12.5784 5.00016 14.6667 7.0885 14.6667 9.66683C14.6667 12.2452 12.5784 14.3335 10.0001 14.3335Z" fill="#F6C223"/>
<path d="M10.0001 0.333496C4.85389 0.333496 0.666721 4.52066 0.666721 9.661C0.632888 17.1802 9.64539 23.4148 10.0001 23.6668C10.0001 23.6668 19.3672 17.1802 19.3334 9.66683C19.3334 4.52066 15.1462 0.333496 10.0001 0.333496ZM10.0001 14.3335C7.42172 14.3335 5.33339 12.2452 5.33339 9.66683C5.33339 7.0885 7.42172 5.00016 10.0001 5.00016C12.5784 5.00016 14.6667 7.0885 14.6667 9.66683C14.6667 12.2452 12.5784 14.3335 10.0001 14.3335Z" fill="url(#paint0_linear)"/>
<defs>
<linearGradient id="paint0_linear" x1="2.94695" y1="-35.979" x2="38.0194" y2="3.17725" gradientUnits="userSpaceOnUse">
<stop stop-color="#FAEFCD"/>
<stop offset="1" stop-color="#FAEFCD" stop-opacity="0"/>
</linearGradient>
</defs>
</svg>
