<svg width="22" height="22" viewBox="0 0 22 22" fill="none" xmlns="http://www.w3.org/2000/svg">
<path d="M20.9015 16.9964L16.159 12.6844C15.6935 12.2609 14.9748 12.2831 14.5361 12.7346L11.7443 15.6058C11.0723 15.4774 9.7213 15.0563 8.33063 13.6691C6.93996 12.2773 6.5188 10.9228 6.39396 10.2554L9.2628 7.46244C9.71546 7.02378 9.73646 6.30628 9.31296 5.83961L5.00213 1.09828C4.57863 0.630442 3.8588 0.586108 3.3793 0.996775L0.84763 3.16794C0.645796 3.37094 0.525629 3.63928 0.509296 3.92511C0.491796 4.21678 0.15813 11.1258 5.51546 16.4854C10.1891 21.1579 16.0435 21.4998 17.6558 21.4998C17.8915 21.4998 18.0361 21.4928 18.0746 21.4904C18.3605 21.4741 18.6288 21.3539 18.8306 21.1509L21.0006 18.6181C21.4136 18.1386 21.3681 17.4199 20.9015 16.9964Z" fill="#F6C223"/>
<path d="M20.9015 16.9964L16.159 12.6844C15.6935 12.2609 14.9748 12.2831 14.5361 12.7346L11.7443 15.6058C11.0723 15.4774 9.7213 15.0563 8.33063 13.6691C6.93996 12.2773 6.5188 10.9228 6.39396 10.2554L9.2628 7.46244C9.71546 7.02378 9.73646 6.30628 9.31296 5.83961L5.00213 1.09828C4.57863 0.630442 3.8588 0.586108 3.3793 0.996775L0.84763 3.16794C0.645796 3.37094 0.525629 3.63928 0.509296 3.92511C0.491796 4.21678 0.15813 11.1258 5.51546 16.4854C10.1891 21.1579 16.0435 21.4998 17.6558 21.4998C17.8915 21.4998 18.0361 21.4928 18.0746 21.4904C18.3605 21.4741 18.6288 21.3539 18.8306 21.1509L21.0006 18.6181C21.4136 18.1386 21.3681 17.4199 20.9015 16.9964Z" fill="url(#paint0_linear)"/>
<defs>
<linearGradient id="paint0_linear" x1="3.03853" y1="-31.6292" x2="32.8007" y2="9.90398" gradientUnits="userSpaceOnUse">
<stop stop-color="#FAEFCD"/>
<stop offset="1" stop-color="#FAEFCD" stop-opacity="0"/>
</linearGradient>
</defs>
</svg>
