<svg width="240" height="240" viewBox="0 0 240 240" fill="none" xmlns="http://www.w3.org/2000/svg">
<g opacity="0.08">
<mask id="mask0" mask-type="alpha" maskUnits="userSpaceOnUse" x="18" y="38" width="204" height="164">
<rect x="18" y="38.4004" width="204" height="163.2" fill="#C4C4C4"/>
</mask>
<g mask="url(#mask0)">
</g>
<path d="M203.091 177.08C221.961 156.6 220.061 130.3 220.001 130V100V50C220.001 44.48 215.531 40 210.001 40H150.001C138.971 40 130.001 48.97 130.001 60V130C130.001 135.52 134.471 140 140.001 140H150.001H170.781C170.571 144.02 169.551 149.12 166.491 153.96C161.411 161.97 151.841 167.44 138.031 170.2L130.001 171.8V200H140.001C167.831 200 189.061 192.29 203.091 177.08ZM93.0207 177.08C111.901 156.6 109.991 130.3 109.931 130V100V50C109.931 44.48 105.461 40 99.9306 40H39.9307C28.9007 40 19.9307 48.97 19.9307 60V130C19.9307 135.52 24.4007 140 29.9307 140H39.9307H60.7107C60.5007 144.02 59.4807 149.12 56.4207 153.96C51.3407 161.97 41.7707 167.44 27.9607 170.2L19.9307 171.8V200H29.9307C57.7607 200 78.9907 192.29 93.0207 177.08Z" fill="white"/>
</g>
</svg>
