<svg width="160" height="160" viewBox="0 0 160 160" fill="none" xmlns="http://www.w3.org/2000/svg">
<g opacity="0.16">
<mask id="mask0" mask-type="alpha" maskUnits="userSpaceOnUse" x="12" y="25" width="136" height="110">
<rect x="12" y="25.6001" width="136" height="108.8" fill="#C4C4C4"/>
</mask>
<g mask="url(#mask0)">
</g>
<path d="M135.394 118.053C147.974 104.4 146.707 86.8665 146.667 86.6665V66.6665V33.3332C146.667 29.6532 143.687 26.6665 140 26.6665H100C92.6471 26.6665 86.6671 32.6465 86.6671 39.9998V86.6665C86.6671 90.3465 89.6471 93.3332 93.3338 93.3332H100H113.854C113.714 96.0132 113.034 99.4132 110.994 102.64C107.607 107.98 101.227 111.626 92.0204 113.466L86.6671 114.533V133.333H93.3338C111.887 133.333 126.04 128.193 135.394 118.053ZM62.0138 118.053C74.6004 104.4 73.3271 86.8665 73.2871 86.6665V66.6665V33.3332C73.2871 29.6532 70.3071 26.6665 66.6204 26.6665H26.6204C19.2671 26.6665 13.2871 32.6465 13.2871 39.9998V86.6665C13.2871 90.3465 16.2671 93.3332 19.9538 93.3332H26.6204H40.4738C40.3338 96.0132 39.6538 99.4132 37.6138 102.64C34.2271 107.98 27.8471 111.626 18.6404 113.466L13.2871 114.533V133.333H19.9538C38.5071 133.333 52.6604 128.193 62.0138 118.053Z" fill="#F6C223"/>
<path d="M135.394 118.053C147.974 104.4 146.707 86.8665 146.667 86.6665V66.6665V33.3332C146.667 29.6532 143.687 26.6665 140 26.6665H100C92.6471 26.6665 86.6671 32.6465 86.6671 39.9998V86.6665C86.6671 90.3465 89.6471 93.3332 93.3338 93.3332H100H113.854C113.714 96.0132 113.034 99.4132 110.994 102.64C107.607 107.98 101.227 111.626 92.0204 113.466L86.6671 114.533V133.333H93.3338C111.887 133.333 126.04 128.193 135.394 118.053ZM62.0138 118.053C74.6004 104.4 73.3271 86.8665 73.2871 86.6665V66.6665V33.3332C73.2871 29.6532 70.3071 26.6665 66.6204 26.6665H26.6204C19.2671 26.6665 13.2871 32.6465 13.2871 39.9998V86.6665C13.2871 90.3465 16.2671 93.3332 19.9538 93.3332H26.6204H40.4738C40.3338 96.0132 39.6538 99.4132 37.6138 102.64C34.2271 107.98 27.8471 111.626 18.6404 113.466L13.2871 114.533V133.333H19.9538C38.5071 133.333 52.6604 128.193 62.0138 118.053Z" fill="url(#paint0_linear)"/>
</g>
<defs>
<linearGradient id="paint0_linear" x1="29.5871" y1="-139.333" x2="168.73" y2="103.571" gradientUnits="userSpaceOnUse">
<stop stop-color="#FAEFCD"/>
<stop offset="1" stop-color="#FAEFCD" stop-opacity="0"/>
</linearGradient>
</defs>
</svg>
