<svg width="20" height="20" viewBox="0 0 20 20" fill="none" xmlns="http://www.w3.org/2000/svg">
<path d="M10 7.5C8.63167 7.5 7.5 8.6325 7.5 10C7.5 11.3683 8.63167 12.5 10 12.5C11.3675 12.5 12.5 11.3683 12.5 10C12.5 8.6325 11.3675 7.5 10 7.5Z" fill="#A8A9B0"/>
<path d="M10.0004 4.16699C3.63957 4.16699 1.7279 9.68116 1.7104 9.73699L1.62207 10.0003L1.70957 10.2637C1.7279 10.3195 3.63957 15.8337 10.0004 15.8337C16.3612 15.8337 18.2729 10.3195 18.2904 10.2637L18.3787 10.0003L18.2912 9.73699C18.2729 9.68116 16.3612 4.16699 10.0004 4.16699ZM10.0004 14.167C5.54124 14.167 3.81374 10.962 3.3954 10.0003C3.8154 9.03533 5.54374 5.83366 10.0004 5.83366C14.4596 5.83366 16.1871 9.03866 16.6054 10.0003C16.1854 10.9653 14.4571 14.167 10.0004 14.167Z" fill="#A8A9B0"/>
</svg>
