<svg width="32" height="32" viewBox="0 0 32 32" fill="none" xmlns="http://www.w3.org/2000/svg">
<path d="M22.6667 22.6667H20.5881L7.65475 8.436C7.40275 8.15867 7.04408 8 6.66808 8H2.66675V10.6667H6.07875L11.5321 16.6667L6.07875 22.668H2.66675V25.3347H6.66808C7.04408 25.3347 7.40275 25.176 7.65475 24.8987L13.3334 18.6493L19.0121 24.8973C19.2641 25.1747 19.6227 25.3333 19.9987 25.3333H22.6667V29.3333L29.3334 24L22.6667 18.6667V22.6667Z" fill="#194299"/>
<path d="M22.6667 22.6667H20.5881L7.65475 8.436C7.40275 8.15867 7.04408 8 6.66808 8H2.66675V10.6667H6.07875L11.5321 16.6667L6.07875 22.668H2.66675V25.3347H6.66808C7.04408 25.3347 7.40275 25.176 7.65475 24.8987L13.3334 18.6493L19.0121 24.8973C19.2641 25.1747 19.6227 25.3333 19.9987 25.3333H22.6667V29.3333L29.3334 24L22.6667 18.6667V22.6667Z" fill="url(#paint0_linear)"/>
<path d="M20.588 10.6667H22.6667V14.6667L29.3334 9.416L22.6667 4V8H19.9987C19.6227 8 19.264 8.15867 19.012 8.436L14.5214 13.3787L16.4947 15.1733L20.588 10.6667Z" fill="#194299"/>
<path d="M20.588 10.6667H22.6667V14.6667L29.3334 9.416L22.6667 4V8H19.9987C19.6227 8 19.264 8.15867 19.012 8.436L14.5214 13.3787L16.4947 15.1733L20.588 10.6667Z" fill="url(#paint1_linear)"/>
<defs>
<linearGradient id="paint0_linear" x1="2.66675" y1="-2.27451" x2="26.4097" y2="24.5597" gradientUnits="userSpaceOnUse">
<stop stop-color="#487FF4"/>
<stop offset="1" stop-color="#487FF4" stop-opacity="0"/>
</linearGradient>
<linearGradient id="paint1_linear" x1="14.5214" y1="-1.38127" x2="26.8472" y2="13.3925" gradientUnits="userSpaceOnUse">
<stop stop-color="#487FF4"/>
<stop offset="1" stop-color="#487FF4" stop-opacity="0"/>
</linearGradient>
</defs>
</svg>
