<svg width="32" height="32" viewBox="0 0 32 32" fill="none" xmlns="http://www.w3.org/2000/svg">
<path d="M26.6667 5.33337H5.33333C3.86266 5.33337 2.66666 6.52937 2.66666 8.00004V24C2.66666 25.4707 3.86266 26.6667 5.33333 26.6667H26.6667C28.1373 26.6667 29.3333 25.4707 29.3333 24V8.00004C29.3333 6.52937 28.1373 5.33337 26.6667 5.33337ZM26.6667 8.00004V8.68137L16 16.9787L5.33333 8.68271V8.00004H26.6667ZM5.33333 24V12.0587L15.1813 19.7187C15.4213 19.9067 15.7107 20 16 20C16.2893 20 16.5787 19.9067 16.8187 19.7187L26.6667 12.0587L26.6693 24H5.33333Z" fill="#194299"/>
<path d="M26.6667 5.33337H5.33333C3.86266 5.33337 2.66666 6.52937 2.66666 8.00004V24C2.66666 25.4707 3.86266 26.6667 5.33333 26.6667H26.6667C28.1373 26.6667 29.3333 25.4707 29.3333 24V8.00004C29.3333 6.52937 28.1373 5.33337 26.6667 5.33337ZM26.6667 8.00004V8.68137L16 16.9787L5.33333 8.68271V8.00004H26.6667ZM5.33333 24V12.0587L15.1813 19.7187C15.4213 19.9067 15.7107 20 16 20C16.2893 20 16.5787 19.9067 16.8187 19.7187L26.6667 12.0587L26.6693 24H5.33333Z" fill="url(#paint0_linear)"/>
<defs>
<linearGradient id="paint0_linear" x1="2.66666" y1="-4.94113" x2="26.4096" y2="21.8931" gradientUnits="userSpaceOnUse">
<stop stop-color="#487FF4"/>
<stop offset="1" stop-color="#487FF4" stop-opacity="0"/>
</linearGradient>
</defs>
</svg>
