<svg width="20" height="28" viewBox="0 0 20 28" fill="none" xmlns="http://www.w3.org/2000/svg">
<path d="M6.00008 24.6665H14.0001V27.3332H6.00008V24.6665ZM16.5414 16.2825C17.9148 14.6745 19.3334 13.0118 19.3334 9.99984C19.3334 4.8545 15.1454 0.666504 10.0001 0.666504C4.85475 0.666504 0.666748 4.8545 0.666748 9.99984C0.666748 13.0465 2.08941 14.7038 3.46808 16.3065C3.94542 16.8638 4.44008 17.4412 4.91342 18.1052C5.10542 18.3798 5.42008 19.4332 5.70142 20.6665H4.66675V23.3332H6.21608H13.7828H15.3334V20.6665H14.3014C14.5854 19.4305 14.9014 18.3745 15.0921 18.0998C15.5614 17.4292 16.0601 16.8465 16.5414 16.2825ZM12.9094 16.5665C12.3308 17.3892 11.8481 19.3332 11.5681 20.6665H8.43342C8.15475 19.3305 7.67075 17.3825 7.08542 16.5598C6.54275 15.7972 5.98408 15.1452 5.49075 14.5705C4.19208 13.0585 3.33342 12.0585 3.33342 9.99984C3.33342 6.32384 6.32408 3.33317 10.0001 3.33317C13.6761 3.33317 16.6668 6.32384 16.6668 9.99984C16.6668 12.0278 15.8094 13.0318 14.5134 14.5505C14.0161 15.1345 13.4521 15.7945 12.9094 16.5665Z" fill="#194299"/>
<path d="M6.00008 24.6665H14.0001V27.3332H6.00008V24.6665ZM16.5414 16.2825C17.9148 14.6745 19.3334 13.0118 19.3334 9.99984C19.3334 4.8545 15.1454 0.666504 10.0001 0.666504C4.85475 0.666504 0.666748 4.8545 0.666748 9.99984C0.666748 13.0465 2.08941 14.7038 3.46808 16.3065C3.94542 16.8638 4.44008 17.4412 4.91342 18.1052C5.10542 18.3798 5.42008 19.4332 5.70142 20.6665H4.66675V23.3332H6.21608H13.7828H15.3334V20.6665H14.3014C14.5854 19.4305 14.9014 18.3745 15.0921 18.0998C15.5614 17.4292 16.0601 16.8465 16.5414 16.2825ZM12.9094 16.5665C12.3308 17.3892 11.8481 19.3332 11.5681 20.6665H8.43342C8.15475 19.3305 7.67075 17.3825 7.08542 16.5598C6.54275 15.7972 5.98408 15.1452 5.49075 14.5705C4.19208 13.0585 3.33342 12.0585 3.33342 9.99984C3.33342 6.32384 6.32408 3.33317 10.0001 3.33317C13.6761 3.33317 16.6668 6.32384 16.6668 9.99984C16.6668 12.0278 15.8094 13.0318 14.5134 14.5505C14.0161 15.1345 13.4521 15.7945 12.9094 16.5665Z" fill="url(#paint0_linear)"/>
<defs>
<linearGradient id="paint0_linear" x1="0.666747" y1="-12.1766" x2="27.6911" y2="4.92737" gradientUnits="userSpaceOnUse">
<stop stop-color="#487FF4"/>
<stop offset="1" stop-color="#487FF4" stop-opacity="0"/>
</linearGradient>
</defs>
</svg>
