<svg width="20" height="20" viewBox="0 0 20 20" fill="none" xmlns="http://www.w3.org/2000/svg">
<path d="M16.667 5.00033H14.167V3.33366C14.167 2.41449 13.4195 1.66699 12.5003 1.66699H7.50033C6.58116 1.66699 5.83366 2.41449 5.83366 3.33366V5.00033H3.33366C2.41449 5.00033 1.66699 5.74783 1.66699 6.66699V9.16699H18.3337V6.66699C18.3337 5.74783 17.5862 5.00033 16.667 5.00033ZM7.50033 3.33366H12.5003V5.00033H7.50033V3.33366ZM11.667 11.667H8.33366V10.0003H1.66699V15.8337C1.66699 16.7528 2.41449 17.5003 3.33366 17.5003H16.667C17.5862 17.5003 18.3337 16.7528 18.3337 15.8337V10.0003H11.667V11.667Z" fill="#194299"/>
<path d="M16.667 5.00033H14.167V3.33366C14.167 2.41449 13.4195 1.66699 12.5003 1.66699H7.50033C6.58116 1.66699 5.83366 2.41449 5.83366 3.33366V5.00033H3.33366C2.41449 5.00033 1.66699 5.74783 1.66699 6.66699V9.16699H18.3337V6.66699C18.3337 5.74783 17.5862 5.00033 16.667 5.00033ZM7.50033 3.33366H12.5003V5.00033H7.50033V3.33366ZM11.667 11.667H8.33366V10.0003H1.66699V15.8337C1.66699 16.7528 2.41449 17.5003 3.33366 17.5003H16.667C17.5862 17.5003 18.3337 16.7528 18.3337 15.8337V10.0003H11.667V11.667Z" fill="url(#paint0_linear)"/>
<defs>
<linearGradient id="paint0_linear" x1="1.66699" y1="-5.95862" x2="19.3992" y2="10.9179" gradientUnits="userSpaceOnUse">
<stop stop-color="#487FF4"/>
<stop offset="1" stop-color="#487FF4" stop-opacity="0"/>
</linearGradient>
</defs>
</svg>
