<svg width="18" height="18" viewBox="0 0 18 18" fill="none" xmlns="http://www.w3.org/2000/svg">
<path d="M9.00008 0.666992C4.40508 0.666992 0.666748 4.40533 0.666748 9.00033C0.666748 13.5953 4.40508 17.3337 9.00008 17.3337C13.5951 17.3337 17.3334 13.5953 17.3334 9.00033C17.3334 4.40533 13.5951 0.666992 9.00008 0.666992ZM15.6092 8.16699H13.3059C13.2092 6.36283 12.6976 4.58366 11.8126 2.96449C13.8442 3.91533 15.3184 5.85699 15.6092 8.16699ZM9.44175 2.35616C10.3042 3.49283 11.4642 5.50616 11.6309 8.16699H6.52508C6.64091 6.00366 7.35342 3.97699 8.56758 2.35533C8.71091 2.34699 8.85425 2.33366 9.00008 2.33366C9.14925 2.33366 9.29508 2.34699 9.44175 2.35616ZM6.24008 2.93949C5.42008 4.51533 4.94675 6.30199 4.85842 8.16699H2.39091C2.68425 5.83699 4.18091 3.88116 6.24008 2.93949ZM2.39091 9.83366H4.86925C4.98258 11.8162 5.42341 13.5653 6.16592 15.0253C4.14508 14.0703 2.68008 12.1353 2.39091 9.83366ZM8.54175 15.6445C7.37425 14.2295 6.68508 12.247 6.53425 9.83366H11.6284C11.4551 12.1445 10.6976 14.1637 9.45925 15.6437C9.30758 15.6537 9.15592 15.667 9.00008 15.667C8.84508 15.667 8.69425 15.6537 8.54175 15.6445ZM11.8842 15.0012C12.6801 13.5062 13.1659 11.7503 13.2934 9.83366H15.6084C15.3226 12.1162 13.8784 14.0395 11.8842 15.0012Z" fill="#A8A9B0"/>
</svg>
