<svg width="52" height="52" viewBox="0 0 52 52" fill="none" xmlns="http://www.w3.org/2000/svg">
<path d="M34.7057 8.26562L33.0027 17.3331H22.243L23.7943 9.06729L19.539 8.26562L17.836 17.3331H8.66667V21.6665H17.0235L15.3963 30.3331H6.5V34.6665H14.5838L13.0368 42.9106L17.2943 43.7101L18.993 34.6665H29.7527L28.2057 42.9106L32.4632 43.7101L34.1597 34.6665H43.3333V30.3331H34.9722L36.5993 21.6665H45.5V17.3331H37.4118L38.9632 9.06729L34.7057 8.26562ZM30.563 30.3331H19.8055L21.4327 21.6665H32.1923L30.563 30.3331Z" fill="#194299"/>
<path d="M34.7057 8.26562L33.0027 17.3331H22.243L23.7943 9.06729L19.539 8.26562L17.836 17.3331H8.66667V21.6665H17.0235L15.3963 30.3331H6.5V34.6665H14.5838L13.0368 42.9106L17.2943 43.7101L18.993 34.6665H29.7527L28.2057 42.9106L32.4632 43.7101L34.1597 34.6665H43.3333V30.3331H34.9722L36.5993 21.6665H45.5V17.3331H37.4118L38.9632 9.06729L34.7057 8.26562ZM30.563 30.3331H19.8055L21.4327 21.6665H32.1923L30.563 30.3331Z" fill="url(#paint0_linear)"/>
<defs>
<linearGradient id="paint0_linear" x1="6.5" y1="-8.80507" x2="46.2433" y2="30.7338" gradientUnits="userSpaceOnUse">
<stop stop-color="#487FF4"/>
<stop offset="1" stop-color="#487FF4" stop-opacity="0"/>
</linearGradient>
</defs>
</svg>
