<svg width="52" height="52" viewBox="0 0 52 52" fill="none" xmlns="http://www.w3.org/2000/svg">
<path d="M41.4873 6.43733C40.7094 5.1395 39.2859 4.3335 37.7736 4.3335H14.2263C12.7139 4.3335 11.2904 5.1395 10.5126 6.43733L4.64309 16.2177C4.43942 16.5557 4.33325 16.9392 4.33325 17.3335C4.33325 19.5132 5.16959 21.4805 6.49992 23.0058V41.1668C6.49992 43.5567 8.44342 45.5002 10.8333 45.5002H19.4999H32.4999H41.1666C43.5564 45.5002 45.4999 43.5567 45.4999 41.1668V23.0058C46.8303 21.4805 47.6666 19.5132 47.6666 17.3335C47.6666 16.9392 47.5604 16.5557 47.3568 16.2177L41.4873 6.43733ZM43.2986 17.8773C43.0299 20.0093 41.2056 21.6668 38.9999 21.6668C36.6101 21.6668 34.6666 19.7233 34.6666 17.3335C34.6666 17.1862 34.6124 17.0562 34.5821 16.9175L34.6254 16.9088L32.9766 8.66683H37.7736L43.2986 17.8773ZM23.4411 8.66683H28.5566L30.3181 17.4743C30.2423 19.797 28.3399 21.6668 25.9999 21.6668C23.6599 21.6668 21.7576 19.797 21.6818 17.4743L23.4411 8.66683ZM14.2263 8.66683H19.0233L17.3766 16.9088L17.4199 16.9175C17.3874 17.0562 17.3333 17.1862 17.3333 17.3335C17.3333 19.7233 15.3898 21.6668 12.9999 21.6668C10.7943 21.6668 8.96992 20.0093 8.70125 17.8773L14.2263 8.66683ZM21.6666 41.1668V34.6668H30.3333V41.1668H21.6666ZM34.6666 41.1668V34.6668C34.6666 32.277 32.7231 30.3335 30.3333 30.3335H21.6666C19.2768 30.3335 17.3333 32.277 17.3333 34.6668V41.1668H10.8333V25.6925C11.5288 25.8723 12.2459 26.0002 12.9999 26.0002C15.5848 26.0002 17.9118 24.8627 19.4999 23.06C21.0881 24.8627 23.4151 26.0002 25.9999 26.0002C28.5848 26.0002 30.9118 24.8627 32.4999 23.06C34.0881 24.8627 36.4151 26.0002 38.9999 26.0002C39.7539 26.0002 40.4711 25.8723 41.1666 25.6925V41.1668H34.6666Z" fill="#194299"/>
<path d="M41.4873 6.43733C40.7094 5.1395 39.2859 4.3335 37.7736 4.3335H14.2263C12.7139 4.3335 11.2904 5.1395 10.5126 6.43733L4.64309 16.2177C4.43942 16.5557 4.33325 16.9392 4.33325 17.3335C4.33325 19.5132 5.16959 21.4805 6.49992 23.0058V41.1668C6.49992 43.5567 8.44342 45.5002 10.8333 45.5002H19.4999H32.4999H41.1666C43.5564 45.5002 45.4999 43.5567 45.4999 41.1668V23.0058C46.8303 21.4805 47.6666 19.5132 47.6666 17.3335C47.6666 16.9392 47.5604 16.5557 47.3568 16.2177L41.4873 6.43733ZM43.2986 17.8773C43.0299 20.0093 41.2056 21.6668 38.9999 21.6668C36.6101 21.6668 34.6666 19.7233 34.6666 17.3335C34.6666 17.1862 34.6124 17.0562 34.5821 16.9175L34.6254 16.9088L32.9766 8.66683H37.7736L43.2986 17.8773ZM23.4411 8.66683H28.5566L30.3181 17.4743C30.2423 19.797 28.3399 21.6668 25.9999 21.6668C23.6599 21.6668 21.7576 19.797 21.6818 17.4743L23.4411 8.66683ZM14.2263 8.66683H19.0233L17.3766 16.9088L17.4199 16.9175C17.3874 17.0562 17.3333 17.1862 17.3333 17.3335C17.3333 19.7233 15.3898 21.6668 12.9999 21.6668C10.7943 21.6668 8.96992 20.0093 8.70125 17.8773L14.2263 8.66683ZM21.6666 41.1668V34.6668H30.3333V41.1668H21.6666ZM34.6666 41.1668V34.6668C34.6666 32.277 32.7231 30.3335 30.3333 30.3335H21.6666C19.2768 30.3335 17.3333 32.277 17.3333 34.6668V41.1668H10.8333V25.6925C11.5288 25.8723 12.2459 26.0002 12.9999 26.0002C15.5848 26.0002 17.9118 24.8627 19.4999 23.06C21.0881 24.8627 23.4151 26.0002 25.9999 26.0002C28.5848 26.0002 30.9118 24.8627 32.4999 23.06C34.0881 24.8627 36.4151 26.0002 38.9999 26.0002C39.7539 26.0002 40.4711 25.8723 41.1666 25.6925V41.1668H34.6666Z" fill="url(#paint0_linear)"/>
<defs>
<linearGradient id="paint0_linear" x1="4.33325" y1="-15.4931" x2="50.4369" y2="28.3858" gradientUnits="userSpaceOnUse">
<stop stop-color="#487FF4"/>
<stop offset="1" stop-color="#487FF4" stop-opacity="0"/>
</linearGradient>
</defs>
</svg>
