<svg id="Icon" height="512" viewBox="0 0 64 64" width="512" xmlns="http://www.w3.org/2000/svg"><path d="m51.44141 21.38086c.03906-.4834.05859-.9375.05859-1.38086a19.5 19.5 0 0 0 -39 0c0 .44336.01953.89746.05859 1.38086a17.49246 17.49246 0 0 0 3.25586 33.9834 1.4998 1.4998 0 0 0 .3711-2.97656 14.49188 14.49188 0 0 1 -1.63965-28.45508 1.50036 1.50036 0 0 0 1.12988-1.66114 16.50055 16.50055 0 1 1 32.64844 0 1.50036 1.50036 0 0 0 1.12988 1.66114 14.49188 14.49188 0 0 1 -1.63965 28.45508 1.4998 1.4998 0 0 0 .3711 2.97656 17.49246 17.49246 0 0 0 3.25586-33.9834z"/><path d="m32 22.5a13.00325 13.00325 0 0 0 -11.3916 19.26758 1.50009 1.50009 0 1 0 2.627-1.44922 10 10 0 1 1 17.5293 0 1.50009 1.50009 0 1 0 2.62695 1.44922 13.00325 13.00325 0 0 0 -11.39165-19.26758z"/><path d="m44 48.5h-5.5v-14.5a1.50039 1.50039 0 0 0 -1.5-1.5h-10a1.50039 1.50039 0 0 0 -1.5 1.5v14.5h-5.5a1.50112 1.50112 0 0 0 -1.06055 2.56055l12 12a1.49947 1.49947 0 0 0 2.1211 0l12-12a1.50114 1.50114 0 0 0 -1.06055-2.56055z" fill="#3e3ef4"/></svg>