<svg width="30" height="30" viewBox="0 0 30 30" fill="none" xmlns="http://www.w3.org/2000/svg">
<path d="M28.3333 0H1.66667C0.745 0 0 0.746667 0 1.66667V28.3333C0 29.2533 0.745 30 1.66667 30H28.3333C29.255 30 30 29.2533 30 28.3333V1.66667C30 0.746667 29.255 0 28.3333 0ZM8.89833 25.5617H4.445V11.245H8.89833V25.5617ZM6.67167 9.29C5.245 9.29 4.09167 8.13333 4.09167 6.71C4.09167 5.28667 5.24333 4.13 6.67167 4.13C8.095 4.13 9.25167 5.285 9.25167 6.71C9.25167 8.135 8.095 9.29 6.67167 9.29ZM25.5633 25.5617H21.115V18.6C21.115 16.94 21.085 14.805 18.8017 14.805C16.485 14.805 16.1333 16.615 16.1333 18.4833V25.5633H11.6883V11.2467H15.955V13.2033H16.0167C16.6083 12.0783 18.0617 10.8917 20.2233 10.8917C24.73 10.8917 25.5617 13.855 25.5617 17.7117V25.5617H25.5633Z" fill="white"/>
</svg>
