<svg width="24" height="20" viewBox="0 0 24 20" fill="none" xmlns="http://www.w3.org/2000/svg">
<path d="M21.3334 0.666504H2.66671C1.37871 0.666504 0.333374 1.71184 0.333374 2.99984V16.9998C0.333374 18.2878 1.37871 19.3332 2.66671 19.3332H21.3334C22.6214 19.3332 23.6667 18.2878 23.6667 16.9998V2.99984C23.6667 1.71184 22.6214 0.666504 21.3334 0.666504ZM21.3334 6.14984L12 12.3728L2.66671 6.14984V3.34634L12 9.56817L21.3334 3.34634V6.14984Z" fill="#F6C223"/>
<path d="M21.3334 0.666504H2.66671C1.37871 0.666504 0.333374 1.71184 0.333374 2.99984V16.9998C0.333374 18.2878 1.37871 19.3332 2.66671 19.3332H21.3334C22.6214 19.3332 23.6667 18.2878 23.6667 16.9998V2.99984C23.6667 1.71184 22.6214 0.666504 21.3334 0.666504ZM21.3334 6.14984L12 12.3728L2.66671 6.14984V3.34634L12 9.56817L21.3334 3.34634V6.14984Z" fill="url(#paint0_linear)"/>
<defs>
<linearGradient id="paint0_linear" x1="3.18375" y1="-28.3835" x2="27.5429" y2="14.1091" gradientUnits="userSpaceOnUse">
<stop stop-color="#FAEFCD"/>
<stop offset="1" stop-color="#FAEFCD" stop-opacity="0"/>
</linearGradient>
</defs>
</svg>
