<svg width="20" height="20" viewBox="0 0 20 20" fill="none" xmlns="http://www.w3.org/2000/svg">
<path d="M15.8333 16.6678C15.8333 9.77449 10.2258 4.16699 3.33331 4.16699V5.83366C9.30665 5.83366 14.1666 10.6937 14.1666 16.6678H15.8333Z" fill="white"/>
<path d="M9.99998 16.6672H11.6666C11.6666 12.0713 7.92831 8.33301 3.33331 8.33301V9.99967C7.00915 9.99967 9.99998 12.9905 9.99998 16.6672Z" fill="white"/>
<path d="M4.99998 16.6663C5.92045 16.6663 6.66665 15.9201 6.66665 14.9997C6.66665 14.0792 5.92045 13.333 4.99998 13.333C4.07951 13.333 3.33331 14.0792 3.33331 14.9997C3.33331 15.9201 4.07951 16.6663 4.99998 16.6663Z" fill="white"/>
</svg>
