<svg width="40" height="40" viewBox="0 0 40 40" fill="none" xmlns="http://www.w3.org/2000/svg">
<path d="M21.6615 31.6665V24.9998H26.6615L19.9948 16.6665L13.3281 24.9998H18.3281V31.6665H21.6615Z" fill="#194299"/>
<path d="M21.6615 31.6665V24.9998H26.6615L19.9948 16.6665L13.3281 24.9998H18.3281V31.6665H21.6615Z" fill="url(#paint0_linear)"/>
<path d="M11.6615 31.6668H14.9948V28.3335H11.6615C8.90479 28.3335 6.66146 26.0902 6.66146 23.3335C6.66146 20.9935 8.65979 18.7402 11.1165 18.3085L12.0848 18.1385L12.4048 17.2085C13.5765 13.7902 16.4865 11.6668 19.9948 11.6668C24.5898 11.6668 28.3281 15.4052 28.3281 20.0002V21.6668H29.9948C31.8331 21.6668 33.3281 23.1618 33.3281 25.0002C33.3281 26.8385 31.8331 28.3335 29.9948 28.3335H24.9948V31.6668H29.9948C33.6715 31.6668 36.6615 28.6768 36.6615 25.0002C36.6615 21.8668 34.4865 19.2302 31.5681 18.5202C30.8398 12.7835 25.9281 8.3335 19.9948 8.3335C15.4015 8.3335 11.4115 11.0185 9.58979 15.2502C6.00979 16.3202 3.32812 19.7002 3.32812 23.3335C3.32812 27.9285 7.06646 31.6668 11.6615 31.6668Z" fill="#194299"/>
<path d="M11.6615 31.6668H14.9948V28.3335H11.6615C8.90479 28.3335 6.66146 26.0902 6.66146 23.3335C6.66146 20.9935 8.65979 18.7402 11.1165 18.3085L12.0848 18.1385L12.4048 17.2085C13.5765 13.7902 16.4865 11.6668 19.9948 11.6668C24.5898 11.6668 28.3281 15.4052 28.3281 20.0002V21.6668H29.9948C31.8331 21.6668 33.3281 23.1618 33.3281 25.0002C33.3281 26.8385 31.8331 28.3335 29.9948 28.3335H24.9948V31.6668H29.9948C33.6715 31.6668 36.6615 28.6768 36.6615 25.0002C36.6615 21.8668 34.4865 19.2302 31.5681 18.5202C30.8398 12.7835 25.9281 8.3335 19.9948 8.3335C15.4015 8.3335 11.4115 11.0185 9.58979 15.2502C6.00979 16.3202 3.32812 19.7002 3.32812 23.3335C3.32812 27.9285 7.06646 31.6668 11.6615 31.6668Z" fill="url(#paint1_linear)"/>
<defs>
<linearGradient id="paint0_linear" x1="13.3281" y1="9.44224" x2="29.7538" y2="22.6435" gradientUnits="userSpaceOnUse">
<stop stop-color="#487FF4"/>
<stop offset="1" stop-color="#487FF4" stop-opacity="0"/>
</linearGradient>
<linearGradient id="paint1_linear" x1="3.32812" y1="-2.90425" x2="28.6577" y2="29.8128" gradientUnits="userSpaceOnUse">
<stop stop-color="#487FF4"/>
<stop offset="1" stop-color="#487FF4" stop-opacity="0"/>
</linearGradient>
</defs>
</svg>
